HIERARCHY
ROOT Hips
{
	OFFSET -14.64140 90.27770 -84.91600
	CHANNELS 6 Xposition Yposition Zposition Zrotation Xrotation Yrotation
	JOINT Spine
	{
		OFFSET 0.00000 13.20850 -1.60436
		CHANNELS 3 Zrotation Xrotation Yrotation
		JOINT Spine1
		{
			OFFSET 0.00000 8.61716 0.00000
			CHANNELS 3 Zrotation Xrotation Yrotation
			JOINT Spine2
			{
				OFFSET 0.00000 8.61717 0.00000
				CHANNELS 3 Zrotation Xrotation Yrotation
				JOINT Spine3
				{
					OFFSET 0.00000 8.61717 0.00000
					CHANNELS 3 Zrotation Xrotation Yrotation
					JOINT Neck
					{
						OFFSET 0.00000 11.07920 1.10792
						CHANNELS 3 Zrotation Xrotation Yrotation
						JOINT Neck1
						{
							OFFSET 0.00000 7.08032 0.00000
							CHANNELS 3 Zrotation Xrotation Yrotation
							JOINT Head
							{
								OFFSET 0.00000 7.08031 0.00000
								CHANNELS 3 Zrotation Xrotation Yrotation
								End site
								{
									OFFSET 0.00000 0.00000 0.00000
								}
							}
						}
					}
					JOINT RightShoulder
					{
						OFFSET -0.01000 7.91373 5.19711
						CHANNELS 3 Zrotation Xrotation Yrotation
						JOINT RightArm
						{
							OFFSET -18.41580 0.00000 0.00000
							CHANNELS 3 Zrotation Xrotation Yrotation
							JOINT RightForeArm
							{
								OFFSET -29.11090 0.00000 0.00000
								CHANNELS 3 Zrotation Xrotation Yrotation
								JOINT RightHand
								{
									OFFSET -24.65040 0.00000 0.00000
									CHANNELS 3 Zrotation Xrotation Yrotation
									JOINT RightHandThumb1
									{
										OFFSET -5.35114 -0.85590 3.97906
										CHANNELS 3 Zrotation Xrotation Yrotation
										JOINT RightHandThumb2
										{
											OFFSET -4.52789 0.00000 0.00000
											CHANNELS 3 Zrotation Xrotation Yrotation
											JOINT RightHandThumb3
											{
												OFFSET -2.46976 0.00000 0.00000
												CHANNELS 3 Zrotation Xrotation Yrotation
												End site
												{
													OFFSET 0.00000 0.00000 0.00000
												}
											}
										}
									}
									JOINT RightHandIndex1
									{
										OFFSET -14.26970 0.00000 2.88139
										CHANNELS 3 Zrotation Xrotation Yrotation
										JOINT RightHandIndex2
										{
											OFFSET -5.48836 0.00000 0.00000
											CHANNELS 3 Zrotation Xrotation Yrotation
											JOINT RightHandIndex3
											{
												OFFSET -3.01859 0.00000 0.00000
												CHANNELS 3 Zrotation Xrotation Yrotation
												End site
												{
													OFFSET 0.00000 0.00000 0.00000
												}
											}
										}
									}
									JOINT RightHandMiddle1
									{
										OFFSET -14.26970 0.00000 -0.09147
										CHANNELS 3 Zrotation Xrotation Yrotation
										JOINT RightHandMiddle2
										{
											OFFSET -6.17441 0.00000 0.00000
											CHANNELS 3 Zrotation Xrotation Yrotation
											JOINT RightHandMiddle3
											{
												OFFSET -3.56743 0.00000 0.00000
												CHANNELS 3 Zrotation Xrotation Yrotation
												End site
												{
													OFFSET 0.00000 0.00000 0.00000
												}
											}
										}
									}
									JOINT RightHandRing1
									{
										OFFSET -12.69180 0.00000 -3.06433
										CHANNELS 3 Zrotation Xrotation Yrotation
										JOINT RightHandRing2
										{
											OFFSET -5.62556 0.00000 0.00000
											CHANNELS 3 Zrotation Xrotation Yrotation
											JOINT RightHandRing3
											{
												OFFSET -3.56744 0.00000 0.00000
												CHANNELS 3 Zrotation Xrotation Yrotation
												End site
												{
													OFFSET 0.00000 0.00000 0.00000
												}
											}
										}
									}
									JOINT RightHandPinky1
									{
										OFFSET -11.11390 0.00000 -6.03719
										CHANNELS 3 Zrotation Xrotation Yrotation
										JOINT RightHandPinky2
										{
											OFFSET -4.52789 0.00000 0.00000
											CHANNELS 3 Zrotation Xrotation Yrotation
											JOINT RightHandPinky3
											{
												OFFSET -2.46976 0.00000 0.00000
												CHANNELS 3 Zrotation Xrotation Yrotation
												End site
												{
													OFFSET 0.00000 0.00000 0.00000
												}
											}
										}
									}
								}
							}
						}
					}
					JOINT LeftShoulder
					{
						OFFSET 0.01000 7.91373 5.19711
						CHANNELS 3 Zrotation Xrotation Yrotation
						JOINT LeftArm
						{
							OFFSET 18.41580 0.00000 0.00000
							CHANNELS 3 Zrotation Xrotation Yrotation
							JOINT LeftForeArm
							{
								OFFSET 29.11090 0.00000 0.00000
								CHANNELS 3 Zrotation Xrotation Yrotation
								JOINT LeftHand
								{
									OFFSET 24.65040 0.00000 0.00000
									CHANNELS 3 Zrotation Xrotation Yrotation
									JOINT LeftHandThumb1
									{
										OFFSET 5.35114 -0.85590 3.97906
										CHANNELS 3 Zrotation Xrotation Yrotation
										JOINT LeftHandThumb2
										{
											OFFSET 4.52789 0.00000 0.00000
											CHANNELS 3 Zrotation Xrotation Yrotation
											JOINT LeftHandThumb3
											{
												OFFSET 2.46977 0.00000 0.00000
												CHANNELS 3 Zrotation Xrotation Yrotation
												End site
												{
													OFFSET 0.00000 0.00000 0.00000
												}
											}
										}
									}
									JOINT LeftHandIndex1
									{
										OFFSET 14.26970 0.00000 2.88139
										CHANNELS 3 Zrotation Xrotation Yrotation
										JOINT LeftHandIndex2
										{
											OFFSET 5.48836 0.00000 0.00000
											CHANNELS 3 Zrotation Xrotation Yrotation
											JOINT LeftHandIndex3
											{
												OFFSET 3.01859 0.00000 0.00000
												CHANNELS 3 Zrotation Xrotation Yrotation
												End site
												{
													OFFSET 0.00000 0.00000 0.00000
												}
											}
										}
									}
									JOINT LeftHandMiddle1
									{
										OFFSET 14.26970 0.00000 -0.09147
										CHANNELS 3 Zrotation Xrotation Yrotation
										JOINT LeftHandMiddle2
										{
											OFFSET 6.17440 0.00000 0.00000
											CHANNELS 3 Zrotation Xrotation Yrotation
											JOINT LeftHandMiddle3
											{
												OFFSET 3.56744 0.00000 0.00000
												CHANNELS 3 Zrotation Xrotation Yrotation
												End site
												{
													OFFSET 0.00000 0.00000 0.00000
												}
											}
										}
									}
									JOINT LeftHandRing1
									{
										OFFSET 12.69180 0.00000 -3.06433
										CHANNELS 3 Zrotation Xrotation Yrotation
										JOINT LeftHandRing2
										{
											OFFSET 5.62556 0.00000 0.00000
											CHANNELS 3 Zrotation Xrotation Yrotation
											JOINT LeftHandRing3
											{
												OFFSET 3.56744 0.00000 0.00000
												CHANNELS 3 Zrotation Xrotation Yrotation
												End site
												{
													OFFSET 0.00000 0.00000 0.00000
												}
											}
										}
									}
									JOINT LeftHandPinky1
									{
										OFFSET 11.11390 0.00000 -6.03719
										CHANNELS 3 Zrotation Xrotation Yrotation
										JOINT LeftHandPinky2
										{
											OFFSET 4.52789 0.00000 0.00000
											CHANNELS 3 Zrotation Xrotation Yrotation
											JOINT LeftHandPinky3
											{
												OFFSET 2.46976 0.00000 0.00000
												CHANNELS 3 Zrotation Xrotation Yrotation
												End site
												{
													OFFSET 0.00000 0.00000 0.00000
												}
											}
										}
									}
								}
							}
						}
					}
					JOINT pCube4
					{
						OFFSET 0.00000 10.91090 1.10792
						CHANNELS 3 Zrotation Xrotation Yrotation
						End site
						{
							OFFSET 0.00000 0.00000 0.00000
						}
					}
				}
			}
		}
	}
	JOINT RightUpLeg
	{
		OFFSET -9.98441 0.00000 0.00000
		CHANNELS 3 Zrotation Xrotation Yrotation
		JOINT RightLeg
		{
			OFFSET 0.00000 -42.11790 0.00000
			CHANNELS 3 Zrotation Xrotation Yrotation
			JOINT RightFoot
			{
				OFFSET 0.00000 -45.00020 -0.00001
				CHANNELS 3 Zrotation Xrotation Yrotation
				JOINT RightForeFoot
				{
					OFFSET 0.00000 -3.74820 0.00000
					CHANNELS 3 Zrotation Xrotation Yrotation
					JOINT RightToeBase
					{
						OFFSET 0.00000 0.06325 14.43120
						CHANNELS 3 Zrotation Xrotation Yrotation
						End site
						{
							OFFSET 0.00000 0.00000 0.00000
						}
					}
				}
			}
		}
	}
	JOINT LeftUpLeg
	{
		OFFSET 9.98441 0.00000 0.00000
		CHANNELS 3 Zrotation Xrotation Yrotation
		JOINT LeftLeg
		{
			OFFSET 0.00000 -42.11800 0.00000
			CHANNELS 3 Zrotation Xrotation Yrotation
			JOINT LeftFoot
			{
				OFFSET 0.00000 -45.00070 0.00000
				CHANNELS 3 Zrotation Xrotation Yrotation
				JOINT LeftForeFoot
				{
					OFFSET 0.00000 -3.74824 0.00000
					CHANNELS 3 Zrotation Xrotation Yrotation
					JOINT LeftToeBase
					{
						OFFSET 0.00000 0.06325 14.43110
						CHANNELS 3 Zrotation Xrotation Yrotation
						End site
						{
							OFFSET 0.00000 0.00000 0.00000
						}
					}
				}
			}
		}
	}
}
MOTION
Frames: 4
Frame Time: 0.050000
-0.006666861780657379 0.005891100819848081 0.020415106803752806 0.022879023688635394 0.040352774068656366 0.015217079668847323 -3.7387083695542787 3.0983779447506024 -0.6792322046395723 -0.7621105212502202 3.3401923108203553 0.28801226996176615 -0.9405414825307219 -1.38101863580393 -2.194269195883778 -0.33473606022808305 0.41495531111474393 -1.01557580888817 -0.8757635408070671 10.444139963813106 1.5503262097751667 -0.16215216740873895 -0.8782756870385152 1.7221681254280385 -0.4753593285446211 -15.774321715379596 0.17817364201959124 0.4833034712396574 0.5998727468163171 -11.346798880328125 69.15167723549983 23.706089890316644 9.062981560824644 20.61048514017447 5.860384341568007 81.86204399660174 25.646479692875626 -0.23498167058471034 -6.245952471112129 4.531067860976741 -0.12507901717756953 -1.5672167427351027 -0.0036808517038635275 0.0025415142325392825 -56.214414355751565 -0.016435800637417886 -0.03783816462609492 -56.222211947920435 -38.79904072090725 0.01716985135417618 0.025262037481848507 -0.0036309101476127417 -0.010013522591352039 0.02789784421633567 -0.02575567152517798 -0.002972882216238864 0.028567646743974398 -36.66196409626843 -0.014570549753327623 0.030547044793106028 -0.018367078188896956 0.004368593681937669 0.03989766116845533 0.007230516220395914 -0.011876634932890965 0.02659573480725254 -19.801960081903214 0.009715068267006487 -0.013624413589827175 0.012640584782696323 -0.022311325362337812 -0.007653184061581973 -0.04562450848361907 -0.045553410668671766 -0.024057954880304527 24.088765796582823 -0.01658317837423108 -0.004627988868167922 28.84853286058742 0.018110967976717057 -0.03074228029042239 28.905074092820637 -0.022601130383872143 0.039312788025379415 3.562815487603514 1.1567590652464756 9.9203189699261 -62.79666255674031 26.12093606904006 -21.59770889881726 -42.08387416121341 6.490527001002523 -82.01591477231314 -16.21349611115164 1.529794426778546 -0.7933447635476192 -0.4825251682071398 0.06399255558795976 -8.09486128098346 0.0020380980219221263 0.019556379109791973 44.56874226331069 -0.025979396458088295 0.03660603687379067 44.58457819374443 12.41159803116555 0.03768245662953841 -0.009997006242397924 0.04272343273398128 -0.04488207294328332 -0.03911943623882223 0.026074989305011155 0.02002946245764587 -0.04341975405007709 11.065527393199933 0.01920915668145345 0.014976770458553019 -0.0452335195606776 -0.002274015077379153 0.03565907565075308 -0.041111425460679835 -0.011248972915192317 -0.04464751255832997 4.744081226971438 0.03595010438521408 0.026484730838810762 -0.03903478306978001 -0.0494175516503401 -0.01457705964149692 -0.026124227803000763 -0.006698688633944285 -0.008529296905952267 -5.600828360582152 0.007621550503360793 0.00909997141874747 -6.7572524008457355 0.0023958820058936777 0.003830595476346799 -6.688859880001304 -0.027661677611937174 -0.004957013157593036 0.0021280180138403405 0.025332733218326693 0.018287117170802735 8.091921323281465 3.5328121941028163 -19.211499291266954 0.005856414155536417 10.411768448086065 0.002852174931989856 -5.639330963581816 -15.64368649059664 3.2102998288400144 0.032685777067233364 -0.01501194444711021 0.03604403235914642 0.04236223290507912 4.691531355624207 0.013693132723192196 12.46651484123629 -8.239097647548611 6.83969266600267 -0.027396978861659392 46.390577354594804 -0.012226533811075208 -4.348430227565132 -14.749172842956963 -3.8705673693628584 -0.04007916203035527 0.0007847709003247624 -0.01199012612570886 0.048177557077955215 -10.749989651030443 0.044822223059266364 
0.0368445958551085 -0.03852804780184669 0.02359108216354653 -0.039542415279517074 -0.007177297840564175 0.04443913531714611 -3.7788427011291863 3.1226731127462246 -0.5900081913666049 -0.8107331837778802 3.3021855259606694 0.3817440243274037 -1.0041101207864016 -1.3782130921675628 -1.921074667994816 -0.3596842976098161 0.37267108433847174 -1.0014912134521983 -0.7509065886938999 10.401127203442423 1.633663897900498 -0.1387183522696715 -0.946042637555057 1.6738651300900658 -0.5381858114243485 -15.84200271175088 0.16747134988186627 0.401522985200108 0.6285397189969636 -11.65269323004231 69.64609473624692 24.147910677147227 7.15807854935694 16.44972722839603 5.708624834634241 75.35193904844023 26.08034561707273 -0.2011054033377236 -5.953285860598201 4.500151168892899 -0.15978663617438632 -1.6280646232116889 0.00490416552550216 -0.011904912211628463 -56.195111164411095 -0.04576166893720173 -0.0297604218089307 -56.279158553700974 -38.73999103403901 -0.04862351208269307 0.011554798425138069 -0.005851031235832805 0.004844075252936616 0.04932852605408043 -0.008294610364533633 0.04540129403640767 -0.005130819669446553 -36.687664906862075 0.008332236501848975 0.04770373332975274 -0.03549231169416292 -0.027740184471681355 -0.015552176798062995 -0.01702781843681953 0.01233352838840394 0.023984203870995424 -19.722241740317155 -0.04286648357667188 -0.020863500475516383 0.043433374059314675 -0.04634530172818585 0.040728111630610964 0.015006469657880555 0.001542237543240449 -0.022704470816723048 24.073056179942032 0.038423895863846515 -0.023405474636393496 28.85060220853162 -0.0407198167394363 -0.021620555005787863 28.85565245345668 -0.010398591890455215 -0.028291738590675675 3.018219372557498 0.9933519429179454 10.328791477284371 -64.79068390144778 25.969247864323457 -16.758446524135255 -38.99987609462468 6.863952513115229 -75.84974709797915 -15.866790118311803 1.9730056421494175 -0.7180710546835596 -0.48700114021880525 0.0900138454697185 -8.085618446865082 -0.009538339402044798 -0.048353098775243714 44.59112643357042 -0.004536095433193685 -0.025716538866774073 44.59566906941167 12.415957396596735 -0.01482014281825855 0.009203703126126036 -0.0022042866745494265 -0.00014035759325407013 0.024113396009333366 -0.017265210120615535 -0.04342268215007635 0.019660005721259748 11.08382720614624 0.014363461427016645 -0.027226719832564965 -0.018959919600076723 0.003708928420946595 -0.009303547017577808 0.03531171036382826 -0.012820931101637728 0.005470308112488896 4.794578489601742 0.02120789006264876 0.012952102973233298 0.011168030054369598 0.008626987701953677 0.009466501376539227 -0.013128553413563905 0.009219888507165817 0.03038173938183106 -5.599657365513308 -0.027071957099439894 -0.023209378027045296 -6.758771040963468 0.030551974977002395 -0.014052798467486412 -6.717777921766761 0.04710150537174442 -0.007211474599297906 0.0077509320897662685 -0.029377012602686593 -0.0032729376432767522 8.043230916888902 3.502590308580472 -19.218711574219203 0.0015003681790634392 10.371681792348022 0.03155127491288139 -5.606146994635086 -15.691368975070278 3.171709905629151 -0.03976719811662912 -0.024787959434119856 -0.029736256080068628 -0.0159282696038531 4.687683910997943 -0.03607971559537301 12.428014795889894 -8.232672601874375 6.861374845153142 0.019369181710541295 46.36994971637935 -0.04577749892674339 -4.3011434220995355 -14.744600020544203 -3.8136583462284044 -0.031799893581499906 0.03547061225054999 -0.004994269607692014 -0.011603844542127461 -10.754342458997751 0.029356338281054547 
0.048162874677753736 0.005105486218185629 0.02441873708424555 -0.04015608694095706 -0.0060063228989250565 -0.049927594813176664 -3.8342031879864753 2.9826840549974154 -0.6109048376018157 -0.836611407667772 3.403522734415238 0.39819738893645296 -1.0826876806812276 -1.362230060828276 -1.6858999164142856 -0.4477196115858299 0.45581524101445203 -0.915439550564211 -0.7095371575818922 10.333743662621263 1.5755614249869485 -0.14111179943880536 -0.9709661704258623 1.5542420797974976 -0.502984420646024 -16.004925988647475 0.15953667114241094 0.23289756232780856 0.6740936025134842 -11.871395795581027 70.05370242722597 24.618699779720636 5.507204420817302 13.100286284803737 5.163696795631167 69.86507696026187 26.512830321702644 -0.1794549350146847 -5.688727358875551 4.542909258437694 -0.1286149715506913 -1.586739312952135 -0.046951862019634666 0.015928096508861428 -56.283772672630775 0.007857431537305972 0.0005855266174321502 -56.20063546260576 -38.77221082418433 -0.0017951572146099313 0.009635142506854951 -0.0014634609590622007 -0.0050556760743232215 0.012004487080021132 0.03297942663992372 0.01057574999910316 0.008010428247321056 -36.69078844694407 0.01605643200416267 0.043388726699945646 0.013839970548525234 0.001292787968516245 -0.025122275308925683 -0.04200698911587828 0.005765765005657642 -0.018627065123389845 -19.75928543578617 0.014643428657700458 0.0167898356810297 0.028581288228580498 -0.030430327803052635 -0.04113135874847869 0.03773821490644367 -0.023466459550939723 0.026175260669850254 24.062159133382988 0.027135465905456315 -0.004286740552257685 28.883445955471455 0.03697921331406117 -0.016602292792451324 28.89562369937891 0.04746439290253249 0.014887210775406242 2.6672253080228407 0.9825498951865996 10.715437787464204 -66.55769264288949 25.775914210827402 -13.114510053332742 -36.97199871455213 7.0618800723450725 -70.43666812300603 -15.653694477862587 2.1807182865007393 -0.6459547909498865 -0.47238188855742336 0.07263446813158773 -8.09303784942866 -0.03970316520986505 -0.01951233206000304 44.54189247701914 0.03572438282498284 0.0029093961711949314 44.595828820220724 12.46259263143682 0.03009289264371092 0.033461591268548634 0.02438658370180568 -0.03740148012032425 0.017081898225106664 -0.015904394923081877 0.04338443987449461 0.018934119694844136 11.087308966910797 -0.03928043174518026 -0.03941604428913733 -0.03982897806342285 -0.010012232693319512 0.025148584100372823 0.0023402582504186663 0.005087738364638809 0.04116917459357519 4.818418227647212 -0.0026980745324268764 -0.03506532992403773 -0.024861244543250928 0.04716711035558088 -0.0022456494957232473 -0.04865415087552291 0.04365807011422147 -0.046497412362091 -5.593364582513626 0.021361717462095933 -0.02249977953180958 -6.7561887505907405 -0.012965631346827215 -0.005157832435484128 -6.699691312307419 0.024389982665540485 -0.031930573786737575 -0.03972909528848696 0.010268227140413005 -0.04077477251825168 7.995050507855573 3.5308290805825457 -19.19423113171122 -0.014426253368247686 10.416213527424295 -0.012949304996576833 -5.608320338664779 -15.642165966126973 3.1468744281733105 0.003026480641168237 -0.006270098194679588 -0.01568630106137981 -0.021198864880463287 4.730196336862709 -0.03657273000242416 12.445392032907602 -8.237853025806386 6.900202739764283 -0.03289217695783819 46.39793451205436 -0.02145021893907032 -4.283970913518689 -14.727602230118807 -3.8283329856511936 0.004610424390136272 0.022466507617935533 -0.04855476455808841 0.03079304325973681 -10.790418312143812 -0.039713587025420084 
0.03289753435599934 -0.04055031876216203 0.0076224747740502 0.04808907723715309 -0.023509749402639803 0.013111552625038459 -3.7808948468780694 2.801100614989021 -0.6060119373752485 -0.8199008620410845 3.380077180826294 0.35392135163899696 -1.082083175791255 -1.3979981377836712 -1.494939384743311 -0.4259888872496774 0.40864693659747925 -0.9102400884240528 -0.6439052620595471 10.347354162392183 1.5608297049487485 -0.05851701243546126 -0.9007306418286134 1.3424830323369896 -0.37609756652567194 -15.905553576080273 0.1879521479950931 -0.009495162326085377 0.759126089416324 -12.15347836541888 70.44477907830662 24.551559619638436 4.275928435900826 9.868966873142401 3.865717302646522 66.97616641466502 26.38254641802964 -0.18897845820999054 -5.277059569389475 4.575277134582225 -0.15450159273127678 -1.6117078207944302 0.038991348005354 0.033589658063024046 -56.20125754576356 -0.03532550777594869 0.047607018565657855 -56.25103768890156 -38.75951838333244 -0.008261213734615547 -0.0015219707247455547 -0.007931264228746578 0.008946581930470496 0.02635374067843197 -0.04233734688058013 0.031308116710892335 0.03102969936081992 -36.70225610923621 0.034086341981284594 -0.01696713545209786 -0.022949865651880907 -0.024348612777263714 0.02909948203034422 -0.04107850665874716 -0.03656462860710867 -0.01423194050106235 -19.80144535587263 0.031776242295038754 -0.019646168471545364 -0.042276437928223116 -0.028139336634483533 0.04639886610195462 -0.03997110984542201 -0.008123662386203418 0.006291360339321696 24.0926957644106 0.00019880920356259992 0.0038543442061343552 28.81624080136967 0.011448458129480867 -0.04171774499057211 28.839357459038265 -0.016261003721187405 -0.024423833376952666 2.56578682745897 0.9850719540901479 10.913856411754226 -67.78767433941368 25.80291844012234 -10.641387402470166 -34.111747930685034 6.3579750917129605 -66.55939982277582 -15.044051479787438 2.2460425632904415 -0.5976670364141541 -0.48335743715017226 0.08231536608996387 -8.123444460750607 0.03955806706834129 -0.027267028145160244 44.55360687463173 0.0075197912417527294 0.015228478272556195 44.53653861417475 12.505897284943257 -0.02991397622028458 -0.005436080930530256 -0.011240382743288707 0.004966039738675853 -0.00032950091120927566 -0.010621731918628651 -0.03699156408685647 0.0014881283163838187 11.13043840225645 3.653832379302793e-05 0.04964291423680755 0.007073736661380508 0.015183168055732036 -0.00765271738198638 0.016154977825025823 0.04395331889142116 -0.010753886376077531 4.820301685727387 0.022087416753717358 0.0004922333939921625 -0.014344191931494037 0.010720080029921942 -0.024906272976364295 -0.019175916768014754 -0.023716938841616013 -0.04680216803703927 -5.592962689046413 0.012630203445790605 -0.02432874280661185 -6.675898831385966 0.01914328277898635 -0.005620506247449228 -6.734757807438362 0.032899246127855664 -0.00037391885013944023 0.02520150048056955 -0.0208044376714923 0.02299866087568775 8.052253143660653 3.477603937167478 -19.18820359138956 -0.025705504490660287 10.419307118770318 0.022282303598622266 -5.611695654812896 -15.62578498633411 3.1759034507240584 0.02779358356387973 -0.02744949828243803 -0.03811961352467211 -0.045965087511337134 4.671307033390134 0.02983506851020303 12.489652408434027 -8.239631917306575 6.877757432962693 -0.001328349613508609 46.380101611312625 0.027212306609672113 -4.302729490991739 -14.781716233540237 -3.8256769764252825 -0.017709310366384835 -0.01162277590823859 -0.026589892380544763 0.04917723091085602 -10.790881801593095 0.04792477169016501 
